<?xml version="1.0" encoding="utf-8"?>
<!-- Generator: Adobe Illustrator 23.0.2, SVG Export Plug-In . SVG Version: 6.00 Build 0)  -->
<svg version="1.1" id="Слой_1" xmlns="http://www.w3.org/2000/svg" xmlns:xlink="http://www.w3.org/1999/xlink" x="0px" y="0px"
	 viewBox="0 0 692 213" style="enable-background:new 0 0 692 213;" xml:space="preserve">
<style type="text/css">
	.st0{fill:#890000;}
	.st1{fill:#B80000;}
</style>
<g>
	<polygon points="297.55,93.79 307.71,116.66 306.54,116.92 296.68,94.73 	"/>
</g>
<g>
	<polygon points="306.64,81.1 307.8,82.7 297.55,93.79 296.68,94.73 286.74,105.49 285.58,103.89 295.83,92.8 296.69,91.86 	"/>
</g>
<g>
	<polygon points="286.84,69.67 296.69,91.86 295.83,92.8 285.67,69.93 	"/>
</g>
<g>
	<polygon points="323.7,90.95 331.72,108.76 332.41,110.29 331.83,110.42 331.25,110.56 331.01,110.03 322.54,91.22 	"/>
</g>
<g>
	<polygon points="337.3,98.91 338.58,100.37 323.66,126.7 322.39,125.25 331.01,110.03 331.25,110.56 331.83,110.42 332.41,110.29 
		331.72,108.76 	"/>
</g>
<g>
	<polygon points="368.65,115.26 368.55,152.25 367.13,151.43 367.21,121.12 353.03,144.17 353.13,108.41 354.55,109.23 
		354.46,138.32 	"/>
</g>
<g>
	<path class="st0" d="M432.93,133.58c6.45,3.72,11.66,12.75,11.64,20.16l-0.12,40.81c-0.02,7.42-5.27,10.41-11.72,6.68L246.83,93.9
		c-6.45-3.72-11.66-12.75-11.64-20.17l0.12-40.81c0.02-7.41,5.27-10.4,11.72-6.68L432.93,133.58z M307.71,116.66l-10.16-22.87
		L307.8,82.7l-1.17-1.6l-9.94,10.76l-9.85-22.19l-1.16,0.25l10.15,22.87l-10.25,11.09l1.16,1.6l9.95-10.76l9.85,22.19L307.71,116.66
		 M368.55,152.25l0.1-36.99l-14.19,23.06l0.08-29.09l-1.42-0.82l-0.1,35.77l14.19-23.06l-0.09,30.31L368.55,152.25 M323.66,126.7
		l14.92-26.33l-1.27-1.46l-5.58,9.85l-8.02-17.81l-1.16,0.27l8.47,18.81l-8.62,15.22L323.66,126.7"/>
</g>
<path class="st1" d="M479.8,132.74c-0.01-0.19-0.01-0.38-0.03-0.56c-0.01-0.09-0.01-0.17-0.02-0.26c0-0.04-0.01-0.08-0.01-0.11
	c-0.01-0.07-0.01-0.13-0.02-0.2c-0.02-0.19-0.04-0.38-0.06-0.57c-0.02-0.19-0.05-0.39-0.08-0.59c0-0.01,0-0.01,0-0.02
	c0-0.01,0-0.02,0-0.03c-0.03-0.18-0.06-0.37-0.09-0.55c-0.04-0.2-0.08-0.41-0.12-0.61c-0.02-0.07-0.03-0.14-0.05-0.22
	c-0.01-0.04-0.02-0.08-0.03-0.13c-0.02-0.09-0.04-0.18-0.06-0.27c-0.05-0.21-0.11-0.41-0.16-0.62c-0.04-0.15-0.09-0.3-0.13-0.45
	c-0.01-0.03-0.02-0.06-0.02-0.08c-0.01-0.03-0.02-0.05-0.02-0.08c-0.06-0.2-0.13-0.4-0.19-0.6c-0.07-0.2-0.14-0.4-0.21-0.6
	c-0.01-0.04-0.03-0.07-0.04-0.11c-0.01-0.03-0.02-0.06-0.03-0.09c-0.05-0.12-0.09-0.25-0.14-0.37c-0.07-0.19-0.15-0.38-0.23-0.57
	c-0.06-0.14-0.12-0.27-0.18-0.41c-0.01-0.02-0.02-0.05-0.03-0.07c-0.01-0.03-0.02-0.05-0.03-0.08c-0.08-0.19-0.17-0.38-0.26-0.56
	c-0.1-0.21-0.2-0.41-0.3-0.62c-0.02-0.03-0.03-0.06-0.05-0.09c-0.02-0.04-0.04-0.08-0.06-0.12c-0.08-0.16-0.17-0.33-0.25-0.49
	c-0.11-0.2-0.22-0.4-0.34-0.6c-0.06-0.1-0.11-0.21-0.17-0.31c-0.02-0.04-0.04-0.08-0.07-0.12c-0.1-0.17-0.22-0.34-0.32-0.51
	c-0.15-0.25-0.31-0.5-0.47-0.75c-0.03-0.04-0.05-0.08-0.08-0.12c-0.24-0.36-0.48-0.71-0.74-1.05c0,0,0,0,0,0c0,0,0,0,0,0
	c-0.17-0.23-0.34-0.46-0.52-0.68c-0.14-0.18-0.29-0.36-0.44-0.54c0,0-0.01-0.01-0.01-0.01c0,0,0-0.01-0.01-0.01
	c-0.15-0.18-0.3-0.35-0.45-0.53c-0.15-0.17-0.3-0.34-0.45-0.5c-0.02-0.03-0.05-0.05-0.08-0.08c-0.03-0.03-0.05-0.06-0.08-0.08
	c-0.11-0.11-0.21-0.23-0.32-0.34c-0.16-0.17-0.33-0.33-0.49-0.49c-0.05-0.05-0.1-0.09-0.15-0.14c-0.04-0.04-0.08-0.07-0.12-0.11
	c-0.08-0.08-0.16-0.15-0.24-0.23c-0.17-0.15-0.34-0.31-0.52-0.45c-0.08-0.06-0.15-0.13-0.23-0.19c-0.04-0.03-0.08-0.06-0.12-0.1
	c-0.06-0.05-0.11-0.1-0.17-0.14c-0.17-0.13-0.34-0.26-0.51-0.39c-0.12-0.09-0.25-0.18-0.37-0.27c-0.02-0.02-0.05-0.03-0.07-0.05
	c-0.02-0.01-0.04-0.03-0.06-0.05c-0.16-0.11-0.33-0.22-0.5-0.33c-0.16-0.1-0.33-0.21-0.49-0.3c-0.04-0.02-0.08-0.04-0.11-0.07
	L282.26,5.77c-0.12-0.07-0.25-0.14-0.37-0.21c-0.16-0.09-0.32-0.17-0.48-0.25c-0.1-0.05-0.21-0.1-0.31-0.15
	c-0.02-0.01-0.05-0.02-0.07-0.03c-0.03-0.01-0.06-0.03-0.09-0.04c-0.16-0.07-0.31-0.14-0.47-0.2c-0.16-0.06-0.32-0.12-0.47-0.18
	c-0.03-0.01-0.05-0.02-0.08-0.03c-0.02-0.01-0.05-0.02-0.07-0.02c-0.11-0.04-0.21-0.07-0.32-0.1c-0.16-0.05-0.32-0.09-0.48-0.13
	c-0.08-0.02-0.15-0.03-0.23-0.05c-0.03-0.01-0.07-0.02-0.1-0.02c-0.05-0.01-0.1-0.02-0.15-0.03c-0.17-0.03-0.34-0.06-0.51-0.08
	c-0.1-0.01-0.21-0.02-0.31-0.03c-0.04,0-0.07-0.01-0.11-0.01c-0.03,0-0.07-0.01-0.1-0.01c-0.19-0.01-0.37-0.02-0.55-0.02
	c-0.08,0-0.16,0.01-0.24,0.01c-0.06,0-0.12,0-0.18,0.01c-0.06,0-0.13,0-0.19,0.01c-0.23,0.02-0.45,0.05-0.67,0.1c0,0-0.01,0-0.01,0
	c-0.05,0.01-0.09,0.03-0.14,0.04c-0.23,0.05-0.45,0.11-0.66,0.18c-0.02,0.01-0.03,0.02-0.05,0.02c-0.31,0.11-0.61,0.25-0.89,0.41
	c0,0,0,0,0,0l-35.24,20.48c0.28-0.16,0.58-0.3,0.9-0.41c0.23-0.08,0.47-0.15,0.71-0.2c0.05-0.01,0.09-0.03,0.14-0.04
	c0.28-0.06,0.57-0.09,0.87-0.11c0.06,0,0.12-0.01,0.18-0.01c0.29-0.01,0.59-0.01,0.89,0.02c0.04,0,0.07,0.01,0.11,0.01
	c0.32,0.03,0.64,0.08,0.97,0.15c0.03,0.01,0.07,0.01,0.1,0.02c0.34,0.08,0.68,0.17,1.03,0.29c0.02,0.01,0.05,0.02,0.07,0.02
	c0.36,0.12,0.73,0.27,1.11,0.44c0.02,0.01,0.05,0.02,0.07,0.03c0.38,0.18,0.77,0.38,1.16,0.6l185.91,107.34
	c0.39,0.23,0.78,0.48,1.17,0.74c0.02,0.02,0.05,0.03,0.07,0.05c0.36,0.25,0.71,0.52,1.06,0.8c0.04,0.03,0.08,0.06,0.12,0.1
	c0.34,0.28,0.67,0.56,0.99,0.87c0.04,0.04,0.08,0.07,0.12,0.11c0.33,0.31,0.65,0.63,0.97,0.97c0.03,0.03,0.05,0.06,0.08,0.08
	c0.34,0.36,0.67,0.73,0.99,1.12c0,0,0.01,0.01,0.01,0.01c0.33,0.39,0.65,0.8,0.95,1.22c0,0,0,0,0,0c0,0,0,0.01,0.01,0.01
	c0.28,0.38,0.55,0.77,0.81,1.16c0.16,0.25,0.32,0.5,0.47,0.75c0.13,0.21,0.26,0.42,0.39,0.63c0.06,0.1,0.11,0.2,0.17,0.31
	c0.2,0.36,0.4,0.72,0.59,1.08c0.02,0.04,0.04,0.08,0.06,0.12c0.22,0.45,0.44,0.9,0.64,1.35c0.01,0.02,0.02,0.05,0.03,0.07
	c0.19,0.45,0.37,0.9,0.54,1.35c0.01,0.03,0.02,0.06,0.03,0.09c0.17,0.46,0.33,0.93,0.47,1.39c0.01,0.03,0.02,0.06,0.02,0.08
	c0.13,0.45,0.25,0.89,0.36,1.34c0.01,0.04,0.02,0.09,0.03,0.13c0.11,0.46,0.2,0.92,0.27,1.38c0,0.01,0,0.01,0,0.02
	c0.07,0.46,0.13,0.92,0.17,1.37c0,0.04,0.01,0.08,0.01,0.11c0.04,0.45,0.06,0.9,0.05,1.35l-0.12,40.81c0,0.44-0.02,0.87-0.06,1.28
	c0,0.04-0.01,0.07-0.01,0.11c-0.04,0.38-0.09,0.74-0.16,1.09c-0.01,0.05-0.02,0.09-0.03,0.14c-0.07,0.34-0.15,0.66-0.25,0.97
	c-0.02,0.06-0.04,0.11-0.06,0.17c-0.1,0.29-0.2,0.57-0.32,0.83c-0.01,0.03-0.03,0.06-0.04,0.1c-0.14,0.3-0.3,0.59-0.47,0.85
	c-0.02,0.03-0.05,0.06-0.07,0.1c-0.14,0.21-0.29,0.41-0.45,0.6c-0.06,0.07-0.12,0.13-0.18,0.2c-0.14,0.15-0.29,0.29-0.44,0.42
	c-0.06,0.05-0.12,0.11-0.19,0.16c-0.22,0.17-0.44,0.33-0.68,0.47l35.24-20.48c0.24-0.14,0.46-0.3,0.68-0.47
	c0.06-0.05,0.13-0.11,0.19-0.16c0.15-0.13,0.3-0.27,0.44-0.42c0.06-0.06,0.12-0.13,0.18-0.2c0.16-0.19,0.31-0.39,0.46-0.6
	c0.02-0.03,0.05-0.06,0.07-0.1c0.01-0.01,0.01-0.01,0.02-0.02c0.16-0.25,0.31-0.52,0.44-0.8c0-0.01,0.01-0.02,0.01-0.03
	c0.01-0.03,0.03-0.06,0.04-0.09c0.08-0.18,0.16-0.35,0.23-0.54c0.03-0.09,0.06-0.19,0.1-0.29c0.02-0.06,0.04-0.11,0.06-0.17
	c0.02-0.05,0.04-0.1,0.05-0.15c0.06-0.19,0.11-0.39,0.16-0.6c0.02-0.07,0.03-0.15,0.04-0.22c0.01-0.05,0.02-0.09,0.03-0.14
	c0.01-0.07,0.03-0.14,0.04-0.21c0.03-0.18,0.06-0.37,0.08-0.56c0.01-0.1,0.02-0.21,0.03-0.32c0-0.04,0.01-0.07,0.01-0.11
	c0-0.04,0.01-0.09,0.01-0.13c0.01-0.18,0.03-0.36,0.03-0.55c0.01-0.19,0.01-0.37,0.01-0.57c0-0.01,0-0.02,0-0.03l0.12-40.81
	C479.81,133.09,479.81,132.91,479.8,132.74z"/>
</svg>
